<mxfile host="app.diagrams.net" modified="2024-06-11T12:55:36.161Z" agent="Mozilla/5.0 (Windows NT 10.0; Win64; x64; rv:126.0) Gecko/20100101 Firefox/126.0" etag="w1hFDXJqxhIeE8e2FpSS" version="24.5.2" type="device">
  <diagram name="Page-1" id="2cc2dc42-3aac-f2a9-1cec-7a8b7cbee084">
    <mxGraphModel dx="2074" dy="1106" grid="1" gridSize="10" guides="1" tooltips="1" connect="1" arrows="1" fold="1" page="1" pageScale="1" pageWidth="1100" pageHeight="850" background="none" math="0" shadow="0">
      <root>
        <mxCell id="0" />
        <mxCell id="1" parent="0" />
        <mxCell id="7026571954dc6520-1" value="" style="strokeWidth=1;shadow=0;dashed=0;align=center;html=1;shape=mxgraph.mockup.containers.browserWindow;rSize=0;strokeColor=#666666;mainText=,;recursiveResize=0;rounded=0;labelBackgroundColor=none;fontFamily=Verdana;fontSize=12" parent="1" vertex="1">
          <mxGeometry x="30" width="1050" height="820" as="geometry" />
        </mxCell>
        <mxCell id="7026571954dc6520-2" value="Page 1" style="strokeWidth=1;shadow=0;dashed=0;align=center;html=1;shape=mxgraph.mockup.containers.anchor;fontSize=17;fontColor=#666666;align=left;" parent="7026571954dc6520-1" vertex="1">
          <mxGeometry x="60" y="12" width="110" height="26" as="geometry" />
        </mxCell>
        <mxCell id="7026571954dc6520-3" value="&lt;div&gt;https://www.default.com/albums/album&lt;/div&gt;" style="strokeWidth=1;shadow=0;dashed=0;align=center;html=1;shape=mxgraph.mockup.containers.anchor;rSize=0;fontSize=17;fontColor=#666666;align=left;" parent="7026571954dc6520-1" vertex="1">
          <mxGeometry x="130" y="60" width="250" height="26" as="geometry" />
        </mxCell>
        <mxCell id="7026571954dc6520-16" value="Album" style="text;html=1;points=[];align=left;verticalAlign=top;spacingTop=-4;fontSize=15;fontFamily=Verdana" parent="7026571954dc6520-1" vertex="1">
          <mxGeometry x="440" y="210" width="170" height="30" as="geometry" />
        </mxCell>
        <mxCell id="Au9KBMOpigVklPiua_w_-5" value="" style="rounded=0;whiteSpace=wrap;html=1;" vertex="1" parent="7026571954dc6520-1">
          <mxGeometry x="-5" y="110" width="1050" height="60" as="geometry" />
        </mxCell>
        <mxCell id="7026571954dc6520-18" value="&lt;div&gt;Home&lt;/div&gt;" style="strokeWidth=1;shadow=0;dashed=0;align=center;html=1;shape=mxgraph.mockup.buttons.button;strokeColor=#666666;mainText=;buttonStyle=round;fontSize=17;fontStyle=0;fillColor=none;whiteSpace=wrap;rounded=0;labelBackgroundColor=none;" parent="7026571954dc6520-1" vertex="1">
          <mxGeometry y="110" width="220" height="60" as="geometry" />
        </mxCell>
        <mxCell id="Au9KBMOpigVklPiua_w_-6" value="Albums" style="strokeWidth=1;shadow=0;dashed=0;align=center;html=1;shape=mxgraph.mockup.buttons.button;strokeColor=#666666;mainText=;buttonStyle=round;fontSize=17;fontStyle=0;fillColor=none;whiteSpace=wrap;rounded=0;labelBackgroundColor=none;" vertex="1" parent="7026571954dc6520-1">
          <mxGeometry x="220" y="110" width="220" height="60" as="geometry" />
        </mxCell>
        <mxCell id="Au9KBMOpigVklPiua_w_-7" value="Songs" style="strokeWidth=1;shadow=0;dashed=0;align=center;html=1;shape=mxgraph.mockup.buttons.button;strokeColor=#666666;mainText=;buttonStyle=round;fontSize=17;fontStyle=0;fillColor=none;whiteSpace=wrap;rounded=0;labelBackgroundColor=none;" vertex="1" parent="7026571954dc6520-1">
          <mxGeometry x="440" y="110" width="220" height="60" as="geometry" />
        </mxCell>
        <mxCell id="Au9KBMOpigVklPiua_w_-8" value="Artists" style="strokeWidth=1;shadow=0;dashed=0;align=center;html=1;shape=mxgraph.mockup.buttons.button;strokeColor=#666666;mainText=;buttonStyle=round;fontSize=17;fontStyle=0;fillColor=none;whiteSpace=wrap;rounded=0;labelBackgroundColor=none;" vertex="1" parent="7026571954dc6520-1">
          <mxGeometry x="660" y="110" width="220" height="60" as="geometry" />
        </mxCell>
        <mxCell id="Au9KBMOpigVklPiua_w_-29" value="" style="verticalLabelPosition=bottom;shadow=0;dashed=0;align=center;html=1;verticalAlign=top;strokeWidth=1;shape=mxgraph.mockup.graphics.simpleIcon;strokeColor=#999999;" vertex="1" parent="7026571954dc6520-1">
          <mxGeometry x="75" y="270" width="100" height="100" as="geometry" />
        </mxCell>
        <mxCell id="Au9KBMOpigVklPiua_w_-61" value="Album" style="text;spacingTop=-5;whiteSpace=wrap;html=1;align=left;fontSize=12;fontFamily=Helvetica;fillColor=none;strokeColor=none;" vertex="1" parent="7026571954dc6520-1">
          <mxGeometry x="75" y="385" width="80" height="20" as="geometry" />
        </mxCell>
        <mxCell id="Au9KBMOpigVklPiua_w_-111" value="" style="verticalLabelPosition=bottom;shadow=0;dashed=0;align=center;html=1;verticalAlign=top;strokeWidth=1;shape=mxgraph.mockup.graphics.simpleIcon;strokeColor=#999999;" vertex="1" parent="7026571954dc6520-1">
          <mxGeometry x="75" y="470" width="100" height="100" as="geometry" />
        </mxCell>
        <mxCell id="Au9KBMOpigVklPiua_w_-112" value="Songs:" style="text;spacingTop=-5;whiteSpace=wrap;html=1;align=left;fontSize=12;fontFamily=Helvetica;fillColor=none;strokeColor=none;" vertex="1" parent="7026571954dc6520-1">
          <mxGeometry x="75" y="440" width="80" height="20" as="geometry" />
        </mxCell>
        <mxCell id="Au9KBMOpigVklPiua_w_-113" value="Song name" style="text;spacingTop=-5;whiteSpace=wrap;html=1;align=left;fontSize=12;fontFamily=Helvetica;fillColor=none;strokeColor=none;" vertex="1" parent="7026571954dc6520-1">
          <mxGeometry x="85" y="580" width="80" height="20" as="geometry" />
        </mxCell>
        <mxCell id="Au9KBMOpigVklPiua_w_-114" value="Artist name" style="shape=rectangle;strokeColor=none;fillColor=none;linkText=;fontSize=17;fontColor=#0000ff;fontStyle=4;html=1;align=center;" vertex="1" parent="7026571954dc6520-1">
          <mxGeometry x="180" y="270" width="150" height="30" as="geometry" />
        </mxCell>
        <mxCell id="Au9KBMOpigVklPiua_w_-115" value="Release date" style="text;spacingTop=-5;whiteSpace=wrap;html=1;align=left;fontSize=12;fontFamily=Helvetica;fillColor=none;strokeColor=none;" vertex="1" parent="7026571954dc6520-1">
          <mxGeometry x="210" y="310" width="80" height="20" as="geometry" />
        </mxCell>
        <mxCell id="Au9KBMOpigVklPiua_w_-117" value="" style="verticalLabelPosition=bottom;shadow=0;dashed=0;align=center;html=1;verticalAlign=top;strokeWidth=1;shape=mxgraph.mockup.graphics.simpleIcon;strokeColor=#999999;" vertex="1" parent="7026571954dc6520-1">
          <mxGeometry x="210" y="470" width="100" height="100" as="geometry" />
        </mxCell>
        <mxCell id="Au9KBMOpigVklPiua_w_-118" value="Song name" style="text;spacingTop=-5;whiteSpace=wrap;html=1;align=left;fontSize=12;fontFamily=Helvetica;fillColor=none;strokeColor=none;" vertex="1" parent="7026571954dc6520-1">
          <mxGeometry x="220" y="580" width="80" height="20" as="geometry" />
        </mxCell>
        <mxCell id="Au9KBMOpigVklPiua_w_-119" value="" style="verticalLabelPosition=bottom;shadow=0;dashed=0;align=center;html=1;verticalAlign=top;strokeWidth=1;shape=mxgraph.mockup.graphics.simpleIcon;strokeColor=#999999;" vertex="1" parent="7026571954dc6520-1">
          <mxGeometry x="350" y="470" width="100" height="100" as="geometry" />
        </mxCell>
        <mxCell id="Au9KBMOpigVklPiua_w_-120" value="Song name" style="text;spacingTop=-5;whiteSpace=wrap;html=1;align=left;fontSize=12;fontFamily=Helvetica;fillColor=none;strokeColor=none;" vertex="1" parent="7026571954dc6520-1">
          <mxGeometry x="360" y="580" width="80" height="20" as="geometry" />
        </mxCell>
        <mxCell id="Au9KBMOpigVklPiua_w_-121" value="" style="verticalLabelPosition=bottom;shadow=0;dashed=0;align=center;html=1;verticalAlign=top;strokeWidth=1;shape=mxgraph.mockup.graphics.simpleIcon;strokeColor=#999999;" vertex="1" parent="7026571954dc6520-1">
          <mxGeometry x="485" y="470" width="100" height="100" as="geometry" />
        </mxCell>
        <mxCell id="Au9KBMOpigVklPiua_w_-122" value="Song name" style="text;spacingTop=-5;whiteSpace=wrap;html=1;align=left;fontSize=12;fontFamily=Helvetica;fillColor=none;strokeColor=none;" vertex="1" parent="7026571954dc6520-1">
          <mxGeometry x="495" y="580" width="80" height="20" as="geometry" />
        </mxCell>
        <mxCell id="Au9KBMOpigVklPiua_w_-123" value="" style="verticalLabelPosition=bottom;shadow=0;dashed=0;align=center;html=1;verticalAlign=top;strokeWidth=1;shape=mxgraph.mockup.graphics.simpleIcon;strokeColor=#999999;" vertex="1" parent="7026571954dc6520-1">
          <mxGeometry x="610" y="470" width="100" height="100" as="geometry" />
        </mxCell>
        <mxCell id="Au9KBMOpigVklPiua_w_-124" value="Song name" style="text;spacingTop=-5;whiteSpace=wrap;html=1;align=left;fontSize=12;fontFamily=Helvetica;fillColor=none;strokeColor=none;" vertex="1" parent="7026571954dc6520-1">
          <mxGeometry x="620" y="580" width="80" height="20" as="geometry" />
        </mxCell>
        <mxCell id="Au9KBMOpigVklPiua_w_-125" value="" style="verticalLabelPosition=bottom;shadow=0;dashed=0;align=center;html=1;verticalAlign=top;strokeWidth=1;shape=mxgraph.mockup.graphics.simpleIcon;strokeColor=#999999;" vertex="1" parent="7026571954dc6520-1">
          <mxGeometry x="745" y="470" width="100" height="100" as="geometry" />
        </mxCell>
        <mxCell id="Au9KBMOpigVklPiua_w_-126" value="Song name" style="text;spacingTop=-5;whiteSpace=wrap;html=1;align=left;fontSize=12;fontFamily=Helvetica;fillColor=none;strokeColor=none;" vertex="1" parent="7026571954dc6520-1">
          <mxGeometry x="755" y="580" width="80" height="20" as="geometry" />
        </mxCell>
        <mxCell id="Au9KBMOpigVklPiua_w_-127" value="" style="verticalLabelPosition=bottom;shadow=0;dashed=0;align=center;html=1;verticalAlign=top;strokeWidth=1;shape=mxgraph.mockup.graphics.simpleIcon;strokeColor=#999999;" vertex="1" parent="7026571954dc6520-1">
          <mxGeometry x="880" y="470" width="100" height="100" as="geometry" />
        </mxCell>
        <mxCell id="Au9KBMOpigVklPiua_w_-128" value="Song name" style="text;spacingTop=-5;whiteSpace=wrap;html=1;align=left;fontSize=12;fontFamily=Helvetica;fillColor=none;strokeColor=none;" vertex="1" parent="7026571954dc6520-1">
          <mxGeometry x="890" y="580" width="80" height="20" as="geometry" />
        </mxCell>
      </root>
    </mxGraphModel>
  </diagram>
</mxfile>
